<svg width="85" height="28" viewBox="0 0 85 28" fill="none" xmlns="http://www.w3.org/2000/svg">
<g clip-path="url(#clip0_8288_13932)">
<path d="M34.7007 21.7626C34.158 20.009 33.3568 18.4911 32.2935 17.2126C31.2339 15.9342 30.119 15.1274 28.956 14.7921C32.995 13.9668 35.0108 11.6532 35.0108 7.85842C35.0108 2.87737 31.1859 0.773682 23.7872 0.773682C22.7276 0.773682 21.2915 0.85105 19.427 0.954208C17.3042 1.05737 15.4803 0.891576 13.7709 0.891576C13.2541 1.48473 13.0067 2.10368 13.0067 3.13526C13.8854 3.13526 15.2994 2.82947 15.7129 3.13895C16.1264 3.44842 16.1412 4.50579 16.1412 5.2021L16.4661 23.6158C16.4661 24.3121 15.6539 25.41 15.0853 25.3547C14.5795 25.3069 13.9076 25.6384 13.0436 25.2811C13.0436 26.1837 13.339 26.9979 13.9371 27.72H23.6285C24.197 27.0237 23.8869 26.5263 23.8869 25.5979C23.0858 25.5979 22.5135 25.76 22.0225 25.4358C21.5315 25.1153 21.8563 23.9768 21.8563 23.3063V16.2253H24.4186C25.12 16.4574 25.6886 17.0763 26.1279 18.0858C26.5673 19.0916 26.9808 20.359 27.3684 21.8805C27.7303 23.2474 28.1253 24.3526 28.5536 25.1926C28.9818 26.0326 29.639 26.7105 30.5324 27.2263C31.4259 27.7421 32.6479 28 34.1986 28C35.8526 28 36.9786 27.5874 37.573 26.7621V24.8242C36.8494 24.7211 36.2587 24.43 35.8083 23.9547C35.3542 23.4721 34.985 22.7426 34.7007 21.7626ZM27.2134 12.0989C26.3347 13.0679 25.12 13.5505 23.5657 13.5505C22.8938 13.5505 22.3252 13.5247 21.86 13.4732V3.48526C22.2477 3.3821 22.8827 3.33052 23.7614 3.33052C25.4154 3.33052 26.6264 3.73579 27.3906 4.55C28.1548 5.36421 28.5351 6.59842 28.5351 8.24895C28.5314 9.8479 28.0921 11.1337 27.2134 12.0989Z" fill="#1F2023"/>
<path d="M83.7965 16.1295C82.9916 14.98 82.0428 14.059 80.9426 13.359C79.8424 12.6627 78.4764 11.9148 76.8482 11.1116C75.7886 10.5958 74.9395 10.1353 74.3045 9.73739C73.6695 9.33581 73.1489 8.85318 72.7317 8.28581C72.3182 7.71844 72.1115 7.04792 72.1115 6.27055C72.1115 5.31634 72.3699 4.54634 72.8868 3.96423C73.4036 3.38213 74.1789 3.09476 75.2127 3.09476C77.93 3.09476 79.7538 4.98107 80.6842 8.75002H83.9073V8.16792C83.9073 6.33318 83.8408 4.71581 83.7116 3.30844C83.5824 1.90107 83.2833 0.799496 82.8181 -0.00366211L79.5175 1.00213C78.9231 0.666864 78.1293 0.416338 77.1325 0.246864C76.1357 0.0810747 75.2127 -0.00366211 74.3599 -0.00366211C72.728 -0.00366211 71.2549 0.294759 69.9332 0.887917C68.6152 1.48107 67.574 2.3395 66.8098 3.46318C66.0456 4.58686 65.6653 5.9095 65.6653 7.43107C65.6653 9.49792 66.2855 11.2516 67.526 12.6995C68.7665 14.1474 70.6051 15.4627 73.0381 16.649C74.8509 17.5258 76.2391 18.3474 77.21 19.1063C78.181 19.869 78.6647 20.8048 78.6647 21.9137C78.6647 22.6616 78.4062 23.3469 77.8894 23.9658C77.3725 24.5848 76.5713 24.8942 75.4822 24.8942C73.8245 24.8942 72.3883 24.2679 71.1737 23.0153C69.9553 21.7627 69.1431 20.0532 68.7296 17.8832H64.8494C64.8494 19.4858 65.0303 21.3242 65.3921 23.4021C65.7539 25.48 66.1822 27.009 66.6732 27.9927L69.6637 26.6774C71.7312 27.5542 73.8134 27.9927 75.9105 27.9927C77.7491 27.9927 79.3551 27.6427 80.7396 26.9463C82.124 26.25 83.1762 25.3142 83.9036 24.139C84.6272 22.9637 84.989 21.6558 84.989 20.2079C85.0001 18.6421 84.5977 17.279 83.7965 16.1295Z" fill="#1F2023"/>
<path d="M53.9912 0.464194C53.4226 1.05735 53.1384 1.87156 53.1384 2.90314C54.1204 2.90314 54.8256 3.05051 55.2538 3.34893C55.6784 3.64735 55.8926 4.14472 55.8926 4.84104V18.7452C55.8926 20.3958 55.5234 21.7331 54.785 22.7537C54.0503 23.7742 52.8651 24.2826 51.237 24.2826C49.6088 24.2826 48.3979 23.7226 47.6078 22.5989C46.8177 21.4752 46.4227 19.9831 46.4227 18.1263V4.84104C46.4227 4.14472 46.6036 3.64735 46.9654 3.34893C47.3272 3.05419 47.9475 2.90314 48.8298 2.90314C48.8298 1.92314 48.5345 1.10893 47.9364 0.464194H38.2339C37.6395 1.10893 37.3405 1.92314 37.3405 2.90314C38.2191 2.90314 38.8394 3.05051 39.2012 3.34893C39.563 3.64735 39.7439 4.14472 39.7439 4.84104V17.3121C39.7439 20.7716 40.7001 23.4168 42.6163 25.2516C44.5324 27.0863 47.1685 28 50.5318 28C53.8694 28 56.3836 27.0495 58.0782 25.1521C59.7728 23.2547 60.6183 20.51 60.6183 16.9216V4.83735C60.6183 4.14104 60.8324 3.64367 61.257 3.34525C61.6852 3.05051 62.3867 2.89946 63.3725 2.89946C63.3725 1.91946 63.0882 1.10525 62.5196 0.46051H53.9912V0.464194Z" fill="#1F2023"/>
<path d="M2.87234 21.7663C3.41506 20.0089 4.21622 18.4947 5.2795 17.2163C6.3391 15.9379 7.45407 15.131 8.61703 14.7958C4.57803 13.9705 2.56222 11.6568 2.56222 7.86208C2.56222 2.88103 6.26156 0.777346 13.6603 0.777346C14.7198 0.777346 16.1856 0.762609 18.05 0.777346C20.1987 0.795767 21.9782 0.699977 23.8538 0.777346C24.3706 1.3705 24.6069 2.33945 24.6069 3.37103C22.868 3.2384 21.8601 3.48892 21.8601 3.48892L21.9081 23.3579C21.9893 24.0284 22.2071 24.5184 22.6096 24.8279C23.012 25.1373 23.6507 25.2921 24.5294 25.2921C24.5294 26.1984 24.234 27.0089 23.6359 27.731H13.8928C13.3243 27.0347 13.04 26.2205 13.04 25.2921C13.8412 25.2921 14.4873 25.1337 14.982 24.8094C15.473 24.4889 15.7167 23.9916 15.7167 23.321V16.2252H13.1545C12.453 16.4573 11.8844 17.0763 11.4451 18.0821C11.0057 19.0916 10.5922 20.3552 10.2046 21.8805C9.84276 23.2473 9.44773 24.3526 9.01946 25.1926C8.59119 26.0326 7.93402 26.7105 7.04057 27.2263C6.14711 27.7421 4.92507 28 3.37445 28C1.72045 28 0.594406 27.5873 0 26.7621V24.8242C0.723624 24.721 1.31434 24.43 1.76476 23.9547C2.21887 23.4758 2.58806 22.7463 2.87234 21.7663ZM14.011 13.5542C14.6829 13.5542 15.2515 13.5284 15.7167 13.4768V3.48524C15.329 3.38208 14.694 3.3305 13.8153 3.3305C12.1613 3.3305 10.9504 3.73577 10.1861 4.54998C9.42188 5.36419 9.04161 6.5984 9.04161 8.24892C9.04161 9.85156 9.48095 11.1337 10.3596 12.1026C11.2383 13.0716 12.4567 13.5542 14.011 13.5542Z" fill="#4A9DF7"/>
</g>
<defs>
<clipPath id="clip0_8288_13932">
<rect width="85" height="28" fill="white"/>
</clipPath>
</defs>
</svg>
